<mxfile host="app.diagrams.net" modified="2023-11-25T15:13:04.915Z" agent="Mozilla/5.0 (Windows NT 10.0; Win64; x64) AppleWebKit/537.36 (KHTML, like Gecko) Chrome/119.0.0.0 Safari/537.36" etag="6oI-B6yonz1LFwj_qpUF" version="22.1.4" type="device">
  <diagram name="Page-1" id="B5ogXyrxy1tjj107a3Pw">
    <mxGraphModel dx="3903" dy="2720" grid="1" gridSize="10" guides="1" tooltips="1" connect="1" arrows="1" fold="1" page="1" pageScale="1" pageWidth="850" pageHeight="1100" math="0" shadow="0">
      <root>
        <mxCell id="0" />
        <mxCell id="1" parent="0" />
        <mxCell id="xcCEIMtzRKoT9lwyk6S9-1" value="Item" style="swimlane;fontStyle=1;align=center;verticalAlign=top;childLayout=stackLayout;horizontal=1;startSize=26;horizontalStack=0;resizeParent=1;resizeParentMax=0;resizeLast=0;collapsible=1;marginBottom=0;whiteSpace=wrap;html=1;" parent="1" vertex="1">
          <mxGeometry x="190" y="10" width="160" height="80" as="geometry" />
        </mxCell>
        <mxCell id="xcCEIMtzRKoT9lwyk6S9-3" value="" style="line;strokeWidth=1;fillColor=none;align=left;verticalAlign=middle;spacingTop=-1;spacingLeft=3;spacingRight=3;rotatable=0;labelPosition=right;points=[];portConstraint=eastwest;strokeColor=inherit;" parent="xcCEIMtzRKoT9lwyk6S9-1" vertex="1">
          <mxGeometry y="26" width="160" height="8" as="geometry" />
        </mxCell>
        <mxCell id="xcCEIMtzRKoT9lwyk6S9-4" value="+ Item(string[] idents, string name, string desc)" style="text;strokeColor=none;fillColor=none;align=left;verticalAlign=top;spacingLeft=4;spacingRight=4;overflow=hidden;rotatable=0;points=[[0,0.5],[1,0.5]];portConstraint=eastwest;whiteSpace=wrap;html=1;" parent="xcCEIMtzRKoT9lwyk6S9-1" vertex="1">
          <mxGeometry y="34" width="160" height="46" as="geometry" />
        </mxCell>
        <mxCell id="xcCEIMtzRKoT9lwyk6S9-5" value="Inventory" style="swimlane;fontStyle=1;align=center;verticalAlign=top;childLayout=stackLayout;horizontal=1;startSize=26;horizontalStack=0;resizeParent=1;resizeParentMax=0;resizeLast=0;collapsible=1;marginBottom=0;whiteSpace=wrap;html=1;" parent="1" vertex="1">
          <mxGeometry x="450" y="240" width="160" height="170" as="geometry" />
        </mxCell>
        <mxCell id="xcCEIMtzRKoT9lwyk6S9-6" value="- List&amp;lt;Item&amp;gt; _items" style="text;strokeColor=none;fillColor=none;align=left;verticalAlign=top;spacingLeft=4;spacingRight=4;overflow=hidden;rotatable=0;points=[[0,0.5],[1,0.5]];portConstraint=eastwest;whiteSpace=wrap;html=1;" parent="xcCEIMtzRKoT9lwyk6S9-5" vertex="1">
          <mxGeometry y="26" width="160" height="26" as="geometry" />
        </mxCell>
        <mxCell id="xcCEIMtzRKoT9lwyk6S9-7" value="" style="line;strokeWidth=1;fillColor=none;align=left;verticalAlign=middle;spacingTop=-1;spacingLeft=3;spacingRight=3;rotatable=0;labelPosition=right;points=[];portConstraint=eastwest;strokeColor=inherit;" parent="xcCEIMtzRKoT9lwyk6S9-5" vertex="1">
          <mxGeometry y="52" width="160" height="8" as="geometry" />
        </mxCell>
        <mxCell id="xcCEIMtzRKoT9lwyk6S9-8" value="+&amp;nbsp;Inventory()&lt;br&gt;+&amp;nbsp;HasItem(string id) bool&lt;br&gt;+ Put(Item item) void&lt;br&gt;+ Take(string id) Item&lt;br&gt;+Fetch(string id) Item&lt;br&gt;+ ItemList string&lt;br&gt;+ Count int" style="text;strokeColor=none;fillColor=none;align=left;verticalAlign=top;spacingLeft=4;spacingRight=4;overflow=hidden;rotatable=0;points=[[0,0.5],[1,0.5]];portConstraint=eastwest;whiteSpace=wrap;html=1;" parent="xcCEIMtzRKoT9lwyk6S9-5" vertex="1">
          <mxGeometry y="60" width="160" height="110" as="geometry" />
        </mxCell>
        <mxCell id="xcCEIMtzRKoT9lwyk6S9-10" value="Location" style="swimlane;fontStyle=1;align=center;verticalAlign=top;childLayout=stackLayout;horizontal=1;startSize=26;horizontalStack=0;resizeParent=1;resizeParentMax=0;resizeLast=0;collapsible=1;marginBottom=0;whiteSpace=wrap;html=1;" parent="1" vertex="1">
          <mxGeometry x="500" y="10" width="220" height="190" as="geometry" />
        </mxCell>
        <mxCell id="xcCEIMtzRKoT9lwyk6S9-11" value="- private string _name&lt;br&gt;- private string _desc&lt;br&gt;- private Inventory _inventory" style="text;strokeColor=none;fillColor=none;align=left;verticalAlign=top;spacingLeft=4;spacingRight=4;overflow=hidden;rotatable=0;points=[[0,0.5],[1,0.5]];portConstraint=eastwest;whiteSpace=wrap;html=1;" parent="xcCEIMtzRKoT9lwyk6S9-10" vertex="1">
          <mxGeometry y="26" width="220" height="54" as="geometry" />
        </mxCell>
        <mxCell id="xcCEIMtzRKoT9lwyk6S9-12" value="" style="line;strokeWidth=1;fillColor=none;align=left;verticalAlign=middle;spacingTop=-1;spacingLeft=3;spacingRight=3;rotatable=0;labelPosition=right;points=[];portConstraint=eastwest;strokeColor=inherit;" parent="xcCEIMtzRKoT9lwyk6S9-10" vertex="1">
          <mxGeometry y="80" width="220" height="8" as="geometry" />
        </mxCell>
        <mxCell id="xcCEIMtzRKoT9lwyk6S9-13" value="+ Location(string[]id, string name, string desc)&lt;br&gt;+ Locate(string id)ProgramObject&lt;br&gt;+&amp;nbsp;FullDescription override string&lt;br&gt;+ Inventory Inventory&lt;br&gt;+ ItemList string" style="text;strokeColor=none;fillColor=none;align=left;verticalAlign=top;spacingLeft=4;spacingRight=4;overflow=hidden;rotatable=0;points=[[0,0.5],[1,0.5]];portConstraint=eastwest;whiteSpace=wrap;html=1;" parent="xcCEIMtzRKoT9lwyk6S9-10" vertex="1">
          <mxGeometry y="88" width="220" height="102" as="geometry" />
        </mxCell>
        <mxCell id="T8LB12u7JjbfXj7A1_Jm-19" style="edgeStyle=orthogonalEdgeStyle;rounded=0;orthogonalLoop=1;jettySize=auto;html=1;entryX=1;entryY=0.5;entryDx=0;entryDy=0;endArrow=diamondThin;endFill=1;" parent="1" source="xcCEIMtzRKoT9lwyk6S9-20" target="T8LB12u7JjbfXj7A1_Jm-15" edge="1">
          <mxGeometry relative="1" as="geometry" />
        </mxCell>
        <mxCell id="xcCEIMtzRKoT9lwyk6S9-20" value="&amp;lt;&amp;lt;Abstract&amp;gt;&amp;gt; Command" style="swimlane;fontStyle=1;align=center;verticalAlign=top;childLayout=stackLayout;horizontal=1;startSize=26;horizontalStack=0;resizeParent=1;resizeParentMax=0;resizeLast=0;collapsible=1;marginBottom=0;whiteSpace=wrap;html=1;" parent="1" vertex="1">
          <mxGeometry x="280" y="460" width="220" height="74" as="geometry" />
        </mxCell>
        <mxCell id="xcCEIMtzRKoT9lwyk6S9-22" value="" style="line;strokeWidth=1;fillColor=none;align=left;verticalAlign=middle;spacingTop=-1;spacingLeft=3;spacingRight=3;rotatable=0;labelPosition=right;points=[];portConstraint=eastwest;strokeColor=inherit;" parent="xcCEIMtzRKoT9lwyk6S9-20" vertex="1">
          <mxGeometry y="26" width="220" height="8" as="geometry" />
        </mxCell>
        <mxCell id="xcCEIMtzRKoT9lwyk6S9-23" value="abstract string Execute(ILocationList location, string[] text)" style="text;strokeColor=none;fillColor=none;align=left;verticalAlign=top;spacingLeft=4;spacingRight=4;overflow=hidden;rotatable=0;points=[[0,0.5],[1,0.5]];portConstraint=eastwest;whiteSpace=wrap;html=1;" parent="xcCEIMtzRKoT9lwyk6S9-20" vertex="1">
          <mxGeometry y="34" width="220" height="40" as="geometry" />
        </mxCell>
        <mxCell id="xcCEIMtzRKoT9lwyk6S9-24" value="LookCommand" style="swimlane;fontStyle=1;align=center;verticalAlign=top;childLayout=stackLayout;horizontal=1;startSize=26;horizontalStack=0;resizeParent=1;resizeParentMax=0;resizeLast=0;collapsible=1;marginBottom=0;whiteSpace=wrap;html=1;" parent="1" vertex="1">
          <mxGeometry x="120" y="600" width="230" height="188" as="geometry" />
        </mxCell>
        <mxCell id="xcCEIMtzRKoT9lwyk6S9-25" value="&lt;div&gt;+ ProgramObject _obj;&lt;/div&gt;&lt;div&gt;+ string _itemid;&lt;/div&gt;" style="text;strokeColor=none;fillColor=none;align=left;verticalAlign=top;spacingLeft=4;spacingRight=4;overflow=hidden;rotatable=0;points=[[0,0.5],[1,0.5]];portConstraint=eastwest;whiteSpace=wrap;html=1;" parent="xcCEIMtzRKoT9lwyk6S9-24" vertex="1">
          <mxGeometry y="26" width="230" height="54" as="geometry" />
        </mxCell>
        <mxCell id="xcCEIMtzRKoT9lwyk6S9-26" value="" style="line;strokeWidth=1;fillColor=none;align=left;verticalAlign=middle;spacingTop=-1;spacingLeft=3;spacingRight=3;rotatable=0;labelPosition=right;points=[];portConstraint=eastwest;strokeColor=inherit;" parent="xcCEIMtzRKoT9lwyk6S9-24" vertex="1">
          <mxGeometry y="80" width="230" height="8" as="geometry" />
        </mxCell>
        <mxCell id="xcCEIMtzRKoT9lwyk6S9-27" value="+ LookCommand()&lt;br&gt;+&amp;nbsp;override string Execute(ILocationList loc, string[] text)" style="text;strokeColor=none;fillColor=none;align=left;verticalAlign=top;spacingLeft=4;spacingRight=4;overflow=hidden;rotatable=0;points=[[0,0.5],[1,0.5]];portConstraint=eastwest;whiteSpace=wrap;html=1;" parent="xcCEIMtzRKoT9lwyk6S9-24" vertex="1">
          <mxGeometry y="88" width="230" height="100" as="geometry" />
        </mxCell>
        <mxCell id="xcCEIMtzRKoT9lwyk6S9-32" value="Post" style="swimlane;fontStyle=1;align=center;verticalAlign=top;childLayout=stackLayout;horizontal=1;startSize=26;horizontalStack=0;resizeParent=1;resizeParentMax=0;resizeLast=0;collapsible=1;marginBottom=0;whiteSpace=wrap;html=1;" parent="1" vertex="1">
          <mxGeometry x="10" y="140" width="240" height="240" as="geometry" />
        </mxCell>
        <mxCell id="xcCEIMtzRKoT9lwyk6S9-33" value="&lt;div&gt;- readonly Location location;&lt;/div&gt;&lt;div&gt;- string[] _ids;&lt;/div&gt;&lt;div&gt;- string _name;&lt;/div&gt;&lt;div&gt;- string _desc;&lt;/div&gt;&lt;div&gt;&lt;br&gt;&lt;/div&gt;" style="text;strokeColor=none;fillColor=none;align=left;verticalAlign=top;spacingLeft=4;spacingRight=4;overflow=hidden;rotatable=0;points=[[0,0.5],[1,0.5]];portConstraint=eastwest;whiteSpace=wrap;html=1;" parent="xcCEIMtzRKoT9lwyk6S9-32" vertex="1">
          <mxGeometry y="26" width="240" height="74" as="geometry" />
        </mxCell>
        <mxCell id="xcCEIMtzRKoT9lwyk6S9-34" value="" style="line;strokeWidth=1;fillColor=none;align=left;verticalAlign=middle;spacingTop=-1;spacingLeft=3;spacingRight=3;rotatable=0;labelPosition=right;points=[];portConstraint=eastwest;strokeColor=inherit;" parent="xcCEIMtzRKoT9lwyk6S9-32" vertex="1">
          <mxGeometry y="100" width="240" height="8" as="geometry" />
        </mxCell>
        <mxCell id="xcCEIMtzRKoT9lwyk6S9-35" value="+ Post(string[] ids, string name, string desc, Location location&lt;br&gt;+&amp;nbsp;string AddItemToInventory(string[] ids, string name, string desc)&lt;br&gt;+&amp;nbsp;string Execute" style="text;strokeColor=none;fillColor=none;align=left;verticalAlign=top;spacingLeft=4;spacingRight=4;overflow=hidden;rotatable=0;points=[[0,0.5],[1,0.5]];portConstraint=eastwest;whiteSpace=wrap;html=1;" parent="xcCEIMtzRKoT9lwyk6S9-32" vertex="1">
          <mxGeometry y="108" width="240" height="132" as="geometry" />
        </mxCell>
        <mxCell id="xcCEIMtzRKoT9lwyk6S9-36" style="edgeStyle=orthogonalEdgeStyle;rounded=0;orthogonalLoop=1;jettySize=auto;html=1;entryX=0.583;entryY=-0.042;entryDx=0;entryDy=0;entryPerimeter=0;endArrow=block;endFill=0;" parent="1" source="xcCEIMtzRKoT9lwyk6S9-23" target="xcCEIMtzRKoT9lwyk6S9-24" edge="1">
          <mxGeometry relative="1" as="geometry" />
        </mxCell>
        <mxCell id="xcCEIMtzRKoT9lwyk6S9-53" value="ProgramObject" style="swimlane;fontStyle=1;align=center;verticalAlign=top;childLayout=stackLayout;horizontal=1;startSize=26;horizontalStack=0;resizeParent=1;resizeParentMax=0;resizeLast=0;collapsible=1;marginBottom=0;whiteSpace=wrap;html=1;" parent="1" vertex="1">
          <mxGeometry x="300" y="-190" width="210" height="188" as="geometry" />
        </mxCell>
        <mxCell id="xcCEIMtzRKoT9lwyk6S9-54" value="- string _description&lt;br&gt;- srring _name" style="text;strokeColor=none;fillColor=none;align=left;verticalAlign=top;spacingLeft=4;spacingRight=4;overflow=hidden;rotatable=0;points=[[0,0.5],[1,0.5]];portConstraint=eastwest;whiteSpace=wrap;html=1;" parent="xcCEIMtzRKoT9lwyk6S9-53" vertex="1">
          <mxGeometry y="26" width="210" height="44" as="geometry" />
        </mxCell>
        <mxCell id="xcCEIMtzRKoT9lwyk6S9-55" value="" style="line;strokeWidth=1;fillColor=none;align=left;verticalAlign=middle;spacingTop=-1;spacingLeft=3;spacingRight=3;rotatable=0;labelPosition=right;points=[];portConstraint=eastwest;strokeColor=inherit;" parent="xcCEIMtzRKoT9lwyk6S9-53" vertex="1">
          <mxGeometry y="70" width="210" height="8" as="geometry" />
        </mxCell>
        <mxCell id="xcCEIMtzRKoT9lwyk6S9-56" value="+ ProgramObject(string[] id, string name, string desc)&lt;br&gt;+ Name string&amp;nbsp;&lt;br&gt;+ ShortDescription string&amp;nbsp;&lt;br&gt;+ FullDescription virtual string" style="text;strokeColor=none;fillColor=none;align=left;verticalAlign=top;spacingLeft=4;spacingRight=4;overflow=hidden;rotatable=0;points=[[0,0.5],[1,0.5]];portConstraint=eastwest;whiteSpace=wrap;html=1;" parent="xcCEIMtzRKoT9lwyk6S9-53" vertex="1">
          <mxGeometry y="78" width="210" height="110" as="geometry" />
        </mxCell>
        <mxCell id="T8LB12u7JjbfXj7A1_Jm-1" style="edgeStyle=orthogonalEdgeStyle;rounded=0;orthogonalLoop=1;jettySize=auto;html=1;entryX=1;entryY=0.5;entryDx=0;entryDy=0;endArrow=diamondThin;endFill=0;exitX=-0.023;exitY=0.181;exitDx=0;exitDy=0;exitPerimeter=0;" parent="1" source="xcCEIMtzRKoT9lwyk6S9-8" edge="1">
          <mxGeometry relative="1" as="geometry">
            <mxPoint x="310" y="92" as="targetPoint" />
            <mxPoint x="410" y="322" as="sourcePoint" />
          </mxGeometry>
        </mxCell>
        <mxCell id="T8LB12u7JjbfXj7A1_Jm-3" style="edgeStyle=orthogonalEdgeStyle;rounded=0;orthogonalLoop=1;jettySize=auto;html=1;endArrow=block;endFill=0;" parent="1" source="xcCEIMtzRKoT9lwyk6S9-56" target="xcCEIMtzRKoT9lwyk6S9-1" edge="1">
          <mxGeometry relative="1" as="geometry" />
        </mxCell>
        <mxCell id="T8LB12u7JjbfXj7A1_Jm-4" style="edgeStyle=orthogonalEdgeStyle;rounded=0;orthogonalLoop=1;jettySize=auto;html=1;entryX=0.5;entryY=0;entryDx=0;entryDy=0;endArrow=block;endFill=0;" parent="1" source="xcCEIMtzRKoT9lwyk6S9-54" target="xcCEIMtzRKoT9lwyk6S9-10" edge="1">
          <mxGeometry relative="1" as="geometry" />
        </mxCell>
        <mxCell id="T8LB12u7JjbfXj7A1_Jm-12" style="edgeStyle=orthogonalEdgeStyle;rounded=0;orthogonalLoop=1;jettySize=auto;html=1;entryX=1;entryY=0.5;entryDx=0;entryDy=0;endArrow=diamond;endFill=0;" parent="1" source="T8LB12u7JjbfXj7A1_Jm-5" target="xcCEIMtzRKoT9lwyk6S9-11" edge="1">
          <mxGeometry relative="1" as="geometry" />
        </mxCell>
        <mxCell id="T8LB12u7JjbfXj7A1_Jm-5" value="LocationList" style="swimlane;fontStyle=1;align=center;verticalAlign=top;childLayout=stackLayout;horizontal=1;startSize=26;horizontalStack=0;resizeParent=1;resizeParentMax=0;resizeLast=0;collapsible=1;marginBottom=0;whiteSpace=wrap;html=1;" parent="1" vertex="1">
          <mxGeometry x="1000" y="-27" width="330" height="180" as="geometry" />
        </mxCell>
        <mxCell id="T8LB12u7JjbfXj7A1_Jm-6" value="-&amp;nbsp;List&amp;lt;Location&amp;gt; locations" style="text;strokeColor=none;fillColor=none;align=left;verticalAlign=top;spacingLeft=4;spacingRight=4;overflow=hidden;rotatable=0;points=[[0,0.5],[1,0.5]];portConstraint=eastwest;whiteSpace=wrap;html=1;" parent="T8LB12u7JjbfXj7A1_Jm-5" vertex="1">
          <mxGeometry y="26" width="330" height="26" as="geometry" />
        </mxCell>
        <mxCell id="T8LB12u7JjbfXj7A1_Jm-7" value="" style="line;strokeWidth=1;fillColor=none;align=left;verticalAlign=middle;spacingTop=-1;spacingLeft=3;spacingRight=3;rotatable=0;labelPosition=right;points=[];portConstraint=eastwest;strokeColor=inherit;" parent="T8LB12u7JjbfXj7A1_Jm-5" vertex="1">
          <mxGeometry y="52" width="330" height="8" as="geometry" />
        </mxCell>
        <mxCell id="T8LB12u7JjbfXj7A1_Jm-8" value="+&amp;nbsp;LocationList()&lt;br&gt;+&amp;nbsp;AddLocation(Location location) void&lt;br&gt;+ List&amp;lt;Location&amp;gt; GetList&lt;br&gt;+ Count() int&lt;br&gt;+ProgramObject LocateItemorLoc(string id)&lt;br&gt;+&amp;nbsp;string List()" style="text;strokeColor=none;fillColor=none;align=left;verticalAlign=top;spacingLeft=4;spacingRight=4;overflow=hidden;rotatable=0;points=[[0,0.5],[1,0.5]];portConstraint=eastwest;whiteSpace=wrap;html=1;" parent="T8LB12u7JjbfXj7A1_Jm-5" vertex="1">
          <mxGeometry y="60" width="330" height="120" as="geometry" />
        </mxCell>
        <mxCell id="T8LB12u7JjbfXj7A1_Jm-11" style="edgeStyle=orthogonalEdgeStyle;rounded=0;orthogonalLoop=1;jettySize=auto;html=1;entryX=0.186;entryY=-0.065;entryDx=0;entryDy=0;entryPerimeter=0;endArrow=diamondThin;endFill=0;" parent="1" source="xcCEIMtzRKoT9lwyk6S9-13" target="xcCEIMtzRKoT9lwyk6S9-5" edge="1">
          <mxGeometry relative="1" as="geometry" />
        </mxCell>
        <mxCell id="T8LB12u7JjbfXj7A1_Jm-15" value="CommandFactory" style="swimlane;fontStyle=1;align=center;verticalAlign=top;childLayout=stackLayout;horizontal=1;startSize=26;horizontalStack=0;resizeParent=1;resizeParentMax=0;resizeLast=0;collapsible=1;marginBottom=0;whiteSpace=wrap;html=1;" parent="1" vertex="1">
          <mxGeometry x="-110" y="460" width="210" height="84" as="geometry" />
        </mxCell>
        <mxCell id="T8LB12u7JjbfXj7A1_Jm-17" value="" style="line;strokeWidth=1;fillColor=none;align=left;verticalAlign=middle;spacingTop=-1;spacingLeft=3;spacingRight=3;rotatable=0;labelPosition=right;points=[];portConstraint=eastwest;strokeColor=inherit;" parent="T8LB12u7JjbfXj7A1_Jm-15" vertex="1">
          <mxGeometry y="26" width="210" height="8" as="geometry" />
        </mxCell>
        <mxCell id="T8LB12u7JjbfXj7A1_Jm-18" value="+&amp;nbsp;Command makeCommand(string[] text)" style="text;strokeColor=none;fillColor=none;align=left;verticalAlign=top;spacingLeft=4;spacingRight=4;overflow=hidden;rotatable=0;points=[[0,0.5],[1,0.5]];portConstraint=eastwest;whiteSpace=wrap;html=1;" parent="T8LB12u7JjbfXj7A1_Jm-15" vertex="1">
          <mxGeometry y="34" width="210" height="50" as="geometry" />
        </mxCell>
        <mxCell id="HdvUxVxyBw6ASfSYDT-H-3" style="edgeStyle=orthogonalEdgeStyle;rounded=0;orthogonalLoop=1;jettySize=auto;html=1;entryX=0.568;entryY=-0.005;entryDx=0;entryDy=0;entryPerimeter=0;endArrow=diamondThin;endFill=1;" parent="1" source="xcCEIMtzRKoT9lwyk6S9-1" target="xcCEIMtzRKoT9lwyk6S9-32" edge="1">
          <mxGeometry relative="1" as="geometry">
            <Array as="points">
              <mxPoint x="220" y="127" />
              <mxPoint x="146" y="127" />
            </Array>
          </mxGeometry>
        </mxCell>
        <mxCell id="B4mwlcSrtj21c0jVO6mD-1" value="ILocationList" style="swimlane;fontStyle=1;align=center;verticalAlign=top;childLayout=stackLayout;horizontal=1;startSize=26;horizontalStack=0;resizeParent=1;resizeParentMax=0;resizeLast=0;collapsible=1;marginBottom=0;whiteSpace=wrap;html=1;" parent="1" vertex="1">
          <mxGeometry x="750" y="440" width="230" height="134" as="geometry" />
        </mxCell>
        <mxCell id="B4mwlcSrtj21c0jVO6mD-3" value="" style="line;strokeWidth=1;fillColor=none;align=left;verticalAlign=middle;spacingTop=-1;spacingLeft=3;spacingRight=3;rotatable=0;labelPosition=right;points=[];portConstraint=eastwest;strokeColor=inherit;" parent="B4mwlcSrtj21c0jVO6mD-1" vertex="1">
          <mxGeometry y="26" width="230" height="8" as="geometry" />
        </mxCell>
        <mxCell id="B4mwlcSrtj21c0jVO6mD-4" value="+ LocateItemorLoc(string id)&lt;br&gt;+ List&amp;lt;Location&amp;gt; GetList &amp;lt;&amp;lt;property&amp;gt;&amp;gt; get&lt;br&gt;+ string List()&lt;br&gt;+ void AddLocation(Location loc)" style="text;strokeColor=none;fillColor=none;align=left;verticalAlign=top;spacingLeft=4;spacingRight=4;overflow=hidden;rotatable=0;points=[[0,0.5],[1,0.5]];portConstraint=eastwest;whiteSpace=wrap;html=1;" parent="B4mwlcSrtj21c0jVO6mD-1" vertex="1">
          <mxGeometry y="34" width="230" height="100" as="geometry" />
        </mxCell>
        <mxCell id="B4mwlcSrtj21c0jVO6mD-5" style="edgeStyle=orthogonalEdgeStyle;rounded=0;orthogonalLoop=1;jettySize=auto;html=1;entryX=0.569;entryY=-0.058;entryDx=0;entryDy=0;entryPerimeter=0;endArrow=blockThin;endFill=0;" parent="1" source="T8LB12u7JjbfXj7A1_Jm-8" target="B4mwlcSrtj21c0jVO6mD-1" edge="1">
          <mxGeometry relative="1" as="geometry" />
        </mxCell>
        <mxCell id="B4mwlcSrtj21c0jVO6mD-6" style="edgeStyle=orthogonalEdgeStyle;rounded=0;orthogonalLoop=1;jettySize=auto;html=1;entryX=1;entryY=0.25;entryDx=0;entryDy=0;endArrow=diamondThin;endFill=0;" parent="1" target="xcCEIMtzRKoT9lwyk6S9-20" edge="1">
          <mxGeometry relative="1" as="geometry">
            <mxPoint x="750" y="479" as="sourcePoint" />
          </mxGeometry>
        </mxCell>
        <mxCell id="rA3M5NtRmFevxLukgR5l-1" value="Identifiable objects" style="swimlane;fontStyle=1;align=center;verticalAlign=top;childLayout=stackLayout;horizontal=1;startSize=26;horizontalStack=0;resizeParent=1;resizeParentMax=0;resizeLast=0;collapsible=1;marginBottom=0;whiteSpace=wrap;html=1;" parent="1" vertex="1">
          <mxGeometry x="300" y="-440" width="210" height="170" as="geometry" />
        </mxCell>
        <mxCell id="rA3M5NtRmFevxLukgR5l-2" value="- List&amp;lt;string&amp;gt; _identifiers" style="text;strokeColor=none;fillColor=none;align=left;verticalAlign=top;spacingLeft=4;spacingRight=4;overflow=hidden;rotatable=0;points=[[0,0.5],[1,0.5]];portConstraint=eastwest;whiteSpace=wrap;html=1;" parent="rA3M5NtRmFevxLukgR5l-1" vertex="1">
          <mxGeometry y="26" width="210" height="26" as="geometry" />
        </mxCell>
        <mxCell id="rA3M5NtRmFevxLukgR5l-3" value="" style="line;strokeWidth=1;fillColor=none;align=left;verticalAlign=middle;spacingTop=-1;spacingLeft=3;spacingRight=3;rotatable=0;labelPosition=right;points=[];portConstraint=eastwest;strokeColor=inherit;" parent="rA3M5NtRmFevxLukgR5l-1" vertex="1">
          <mxGeometry y="52" width="210" height="8" as="geometry" />
        </mxCell>
        <mxCell id="rA3M5NtRmFevxLukgR5l-4" value="+ IdentifiableObject(string[] idents)&lt;br&gt;+ AreYou(string id) bool&lt;br&gt;+ FirstId string&lt;br&gt;+ AddIdentifier(string id) void" style="text;strokeColor=none;fillColor=none;align=left;verticalAlign=top;spacingLeft=4;spacingRight=4;overflow=hidden;rotatable=0;points=[[0,0.5],[1,0.5]];portConstraint=eastwest;whiteSpace=wrap;html=1;" parent="rA3M5NtRmFevxLukgR5l-1" vertex="1">
          <mxGeometry y="60" width="210" height="110" as="geometry" />
        </mxCell>
        <mxCell id="rA3M5NtRmFevxLukgR5l-13" style="edgeStyle=orthogonalEdgeStyle;rounded=0;orthogonalLoop=1;jettySize=auto;html=1;entryX=0.551;entryY=-0.013;entryDx=0;entryDy=0;entryPerimeter=0;endArrow=block;endFill=0;" parent="1" source="rA3M5NtRmFevxLukgR5l-4" target="xcCEIMtzRKoT9lwyk6S9-53" edge="1">
          <mxGeometry relative="1" as="geometry" />
        </mxCell>
        <mxCell id="H6qBOcClt7uM8LeXSZHF-5" value="Data" style="rounded=0;whiteSpace=wrap;html=1;" parent="1" vertex="1">
          <mxGeometry x="960" y="-240" width="120" height="60" as="geometry" />
        </mxCell>
        <mxCell id="H6qBOcClt7uM8LeXSZHF-9" value="Take" style="swimlane;fontStyle=1;align=center;verticalAlign=top;childLayout=stackLayout;horizontal=1;startSize=26;horizontalStack=0;resizeParent=1;resizeParentMax=0;resizeLast=0;collapsible=1;marginBottom=0;whiteSpace=wrap;html=1;" parent="1" vertex="1">
          <mxGeometry x="-290" y="140" width="240" height="240" as="geometry" />
        </mxCell>
        <mxCell id="H6qBOcClt7uM8LeXSZHF-10" value="&lt;div&gt;- readonly Location location;&lt;/div&gt;&lt;div&gt;- string[] _ids;&lt;/div&gt;&lt;div&gt;- string _name;&lt;/div&gt;&lt;div&gt;- string _desc;&lt;/div&gt;&lt;div&gt;&lt;br&gt;&lt;/div&gt;" style="text;strokeColor=none;fillColor=none;align=left;verticalAlign=top;spacingLeft=4;spacingRight=4;overflow=hidden;rotatable=0;points=[[0,0.5],[1,0.5]];portConstraint=eastwest;whiteSpace=wrap;html=1;" parent="H6qBOcClt7uM8LeXSZHF-9" vertex="1">
          <mxGeometry y="26" width="240" height="74" as="geometry" />
        </mxCell>
        <mxCell id="H6qBOcClt7uM8LeXSZHF-11" value="" style="line;strokeWidth=1;fillColor=none;align=left;verticalAlign=middle;spacingTop=-1;spacingLeft=3;spacingRight=3;rotatable=0;labelPosition=right;points=[];portConstraint=eastwest;strokeColor=inherit;" parent="H6qBOcClt7uM8LeXSZHF-9" vertex="1">
          <mxGeometry y="100" width="240" height="8" as="geometry" />
        </mxCell>
        <mxCell id="H6qBOcClt7uM8LeXSZHF-12" value="+ Post(string[] ids, string name, string desc, Location location&lt;br&gt;+&amp;nbsp;string AddItemToInventory(string[] ids, string name, string desc)&lt;br&gt;+&amp;nbsp;string Execute" style="text;strokeColor=none;fillColor=none;align=left;verticalAlign=top;spacingLeft=4;spacingRight=4;overflow=hidden;rotatable=0;points=[[0,0.5],[1,0.5]];portConstraint=eastwest;whiteSpace=wrap;html=1;" parent="H6qBOcClt7uM8LeXSZHF-9" vertex="1">
          <mxGeometry y="108" width="240" height="132" as="geometry" />
        </mxCell>
        <mxCell id="D8peiMwS4GSlnoeIDgnq-9" style="edgeStyle=orthogonalEdgeStyle;rounded=0;orthogonalLoop=1;jettySize=auto;html=1;entryX=0.5;entryY=0;entryDx=0;entryDy=0;endArrow=block;endFill=0;" parent="1" source="D8peiMwS4GSlnoeIDgnq-1" target="H6qBOcClt7uM8LeXSZHF-9" edge="1">
          <mxGeometry relative="1" as="geometry" />
        </mxCell>
        <mxCell id="D8peiMwS4GSlnoeIDgnq-11" style="edgeStyle=orthogonalEdgeStyle;rounded=0;orthogonalLoop=1;jettySize=auto;html=1;endArrow=diamondThin;endFill=1;" parent="1" source="D8peiMwS4GSlnoeIDgnq-1" target="D8peiMwS4GSlnoeIDgnq-8" edge="1">
          <mxGeometry relative="1" as="geometry" />
        </mxCell>
        <mxCell id="D8peiMwS4GSlnoeIDgnq-1" value="&amp;lt;&amp;lt;Abstract&amp;gt;&amp;gt; SendForm" style="swimlane;fontStyle=1;align=center;verticalAlign=top;childLayout=stackLayout;horizontal=1;startSize=26;horizontalStack=0;resizeParent=1;resizeParentMax=0;resizeLast=0;collapsible=1;marginBottom=0;whiteSpace=wrap;html=1;" parent="1" vertex="1">
          <mxGeometry x="-100" y="-10" width="160" height="86" as="geometry" />
        </mxCell>
        <mxCell id="D8peiMwS4GSlnoeIDgnq-2" value="+ field: type" style="text;strokeColor=none;fillColor=none;align=left;verticalAlign=top;spacingLeft=4;spacingRight=4;overflow=hidden;rotatable=0;points=[[0,0.5],[1,0.5]];portConstraint=eastwest;whiteSpace=wrap;html=1;" parent="D8peiMwS4GSlnoeIDgnq-1" vertex="1">
          <mxGeometry y="26" width="160" height="26" as="geometry" />
        </mxCell>
        <mxCell id="D8peiMwS4GSlnoeIDgnq-3" value="" style="line;strokeWidth=1;fillColor=none;align=left;verticalAlign=middle;spacingTop=-1;spacingLeft=3;spacingRight=3;rotatable=0;labelPosition=right;points=[];portConstraint=eastwest;strokeColor=inherit;" parent="D8peiMwS4GSlnoeIDgnq-1" vertex="1">
          <mxGeometry y="52" width="160" height="8" as="geometry" />
        </mxCell>
        <mxCell id="D8peiMwS4GSlnoeIDgnq-4" value="+ method(type): type" style="text;strokeColor=none;fillColor=none;align=left;verticalAlign=top;spacingLeft=4;spacingRight=4;overflow=hidden;rotatable=0;points=[[0,0.5],[1,0.5]];portConstraint=eastwest;whiteSpace=wrap;html=1;" parent="D8peiMwS4GSlnoeIDgnq-1" vertex="1">
          <mxGeometry y="60" width="160" height="26" as="geometry" />
        </mxCell>
        <mxCell id="D8peiMwS4GSlnoeIDgnq-5" value="FormFactory" style="swimlane;fontStyle=1;align=center;verticalAlign=top;childLayout=stackLayout;horizontal=1;startSize=26;horizontalStack=0;resizeParent=1;resizeParentMax=0;resizeLast=0;collapsible=1;marginBottom=0;whiteSpace=wrap;html=1;" parent="1" vertex="1">
          <mxGeometry x="-90" y="-139" width="160" height="86" as="geometry" />
        </mxCell>
        <mxCell id="D8peiMwS4GSlnoeIDgnq-6" value="+ field: type" style="text;strokeColor=none;fillColor=none;align=left;verticalAlign=top;spacingLeft=4;spacingRight=4;overflow=hidden;rotatable=0;points=[[0,0.5],[1,0.5]];portConstraint=eastwest;whiteSpace=wrap;html=1;" parent="D8peiMwS4GSlnoeIDgnq-5" vertex="1">
          <mxGeometry y="26" width="160" height="26" as="geometry" />
        </mxCell>
        <mxCell id="D8peiMwS4GSlnoeIDgnq-7" value="" style="line;strokeWidth=1;fillColor=none;align=left;verticalAlign=middle;spacingTop=-1;spacingLeft=3;spacingRight=3;rotatable=0;labelPosition=right;points=[];portConstraint=eastwest;strokeColor=inherit;" parent="D8peiMwS4GSlnoeIDgnq-5" vertex="1">
          <mxGeometry y="52" width="160" height="8" as="geometry" />
        </mxCell>
        <mxCell id="D8peiMwS4GSlnoeIDgnq-8" value="+ method(type): type" style="text;strokeColor=none;fillColor=none;align=left;verticalAlign=top;spacingLeft=4;spacingRight=4;overflow=hidden;rotatable=0;points=[[0,0.5],[1,0.5]];portConstraint=eastwest;whiteSpace=wrap;html=1;" parent="D8peiMwS4GSlnoeIDgnq-5" vertex="1">
          <mxGeometry y="60" width="160" height="26" as="geometry" />
        </mxCell>
        <mxCell id="D8peiMwS4GSlnoeIDgnq-10" style="edgeStyle=orthogonalEdgeStyle;rounded=0;orthogonalLoop=1;jettySize=auto;html=1;entryX=0.419;entryY=-0.018;entryDx=0;entryDy=0;entryPerimeter=0;endArrow=block;endFill=0;" parent="1" source="D8peiMwS4GSlnoeIDgnq-2" target="xcCEIMtzRKoT9lwyk6S9-32" edge="1">
          <mxGeometry relative="1" as="geometry" />
        </mxCell>
        <mxCell id="TKXFWdec4YOWQN8wPBHn-2" style="edgeStyle=orthogonalEdgeStyle;rounded=0;orthogonalLoop=1;jettySize=auto;html=1;entryX=0.21;entryY=1.027;entryDx=0;entryDy=0;entryPerimeter=0;endArrow=diamondThin;endFill=0;" parent="1" source="xcCEIMtzRKoT9lwyk6S9-10" target="D8peiMwS4GSlnoeIDgnq-4" edge="1">
          <mxGeometry relative="1" as="geometry" />
        </mxCell>
        <mxCell id="DFso90_e4sYjMJZ8s3HT-1" value="SqlServer" style="swimlane;fontStyle=1;align=center;verticalAlign=top;childLayout=stackLayout;horizontal=1;startSize=26;horizontalStack=0;resizeParent=1;resizeParentMax=0;resizeLast=0;collapsible=1;marginBottom=0;whiteSpace=wrap;html=1;" parent="1" vertex="1">
          <mxGeometry x="-320" y="670" width="240" height="190" as="geometry" />
        </mxCell>
        <mxCell id="DFso90_e4sYjMJZ8s3HT-2" value="- string connnection" style="text;strokeColor=none;fillColor=none;align=left;verticalAlign=top;spacingLeft=4;spacingRight=4;overflow=hidden;rotatable=0;points=[[0,0.5],[1,0.5]];portConstraint=eastwest;whiteSpace=wrap;html=1;" parent="DFso90_e4sYjMJZ8s3HT-1" vertex="1">
          <mxGeometry y="26" width="240" height="26" as="geometry" />
        </mxCell>
        <mxCell id="DFso90_e4sYjMJZ8s3HT-3" value="" style="line;strokeWidth=1;fillColor=none;align=left;verticalAlign=middle;spacingTop=-1;spacingLeft=3;spacingRight=3;rotatable=0;labelPosition=right;points=[];portConstraint=eastwest;strokeColor=inherit;" parent="DFso90_e4sYjMJZ8s3HT-1" vertex="1">
          <mxGeometry y="52" width="240" height="8" as="geometry" />
        </mxCell>
        <mxCell id="DFso90_e4sYjMJZ8s3HT-4" value="+ SqlServer&lt;br&gt;+ Insert(Item item, Location location)&lt;br&gt;+ Remove(Location location, string name, string id)&lt;br&gt;+ FindItems(Location loc, string name, string id1)" style="text;strokeColor=none;fillColor=none;align=left;verticalAlign=top;spacingLeft=4;spacingRight=4;overflow=hidden;rotatable=0;points=[[0,0.5],[1,0.5]];portConstraint=eastwest;whiteSpace=wrap;html=1;" parent="DFso90_e4sYjMJZ8s3HT-1" vertex="1">
          <mxGeometry y="60" width="240" height="130" as="geometry" />
        </mxCell>
      </root>
    </mxGraphModel>
  </diagram>
</mxfile>
